<mxfile host="app.diagrams.net" modified="2023-05-20T08:38:14.840Z" agent="Mozilla/5.0 (X11; Linux x86_64) AppleWebKit/537.36 (KHTML, like Gecko) Chrome/113.0.0.0 Safari/537.36" etag="EeiHtbbw8sZu8ONmKZIG" version="21.3.2" type="device">
  <diagram name="Pagina-1" id="VHQQRXFeIcmSOIjN9x8A">
    <mxGraphModel dx="1407" dy="497" grid="1" gridSize="10" guides="1" tooltips="1" connect="1" arrows="1" fold="1" page="1" pageScale="1" pageWidth="827" pageHeight="1169" math="0" shadow="0">
      <root>
        <mxCell id="0" />
        <mxCell id="1" parent="0" />
        <mxCell id="0knfeuRSn2bXFJLwSbbv-6" value="Deployment Unit" style="verticalAlign=top;align=center;spacingTop=8;spacingLeft=2;spacingRight=12;shape=cube;size=10;direction=south;fontStyle=4;html=1;whiteSpace=wrap;" vertex="1" parent="1">
          <mxGeometry x="160" y="695" width="360" height="290" as="geometry" />
        </mxCell>
        <mxCell id="0knfeuRSn2bXFJLwSbbv-79" style="edgeStyle=orthogonalEdgeStyle;rounded=0;orthogonalLoop=1;jettySize=auto;html=1;exitX=1;exitY=0.5;exitDx=0;exitDy=0;entryX=0;entryY=0.5;entryDx=0;entryDy=0;endArrow=none;endFill=0;" edge="1" parent="1" source="0knfeuRSn2bXFJLwSbbv-1" target="0knfeuRSn2bXFJLwSbbv-67">
          <mxGeometry relative="1" as="geometry">
            <Array as="points">
              <mxPoint x="230" y="750" />
              <mxPoint x="230" y="900" />
            </Array>
          </mxGeometry>
        </mxCell>
        <mxCell id="0knfeuRSn2bXFJLwSbbv-1" value="α" style="html=1;whiteSpace=wrap;" vertex="1" parent="1">
          <mxGeometry x="180" y="730" width="40" height="40" as="geometry" />
        </mxCell>
        <mxCell id="0knfeuRSn2bXFJLwSbbv-78" style="edgeStyle=orthogonalEdgeStyle;rounded=0;orthogonalLoop=1;jettySize=auto;html=1;exitX=1;exitY=0.5;exitDx=0;exitDy=0;entryX=0;entryY=0.5;entryDx=0;entryDy=0;endArrow=none;endFill=0;" edge="1" parent="1" source="0knfeuRSn2bXFJLwSbbv-2" target="0knfeuRSn2bXFJLwSbbv-67">
          <mxGeometry relative="1" as="geometry">
            <Array as="points">
              <mxPoint x="230" y="800" />
              <mxPoint x="230" y="900" />
            </Array>
          </mxGeometry>
        </mxCell>
        <mxCell id="0knfeuRSn2bXFJLwSbbv-2" value="&lt;div&gt;σ&lt;/div&gt;" style="html=1;whiteSpace=wrap;" vertex="1" parent="1">
          <mxGeometry x="180" y="780" width="40" height="40" as="geometry" />
        </mxCell>
        <mxCell id="0knfeuRSn2bXFJLwSbbv-77" style="edgeStyle=orthogonalEdgeStyle;rounded=0;orthogonalLoop=1;jettySize=auto;html=1;exitX=1;exitY=0.5;exitDx=0;exitDy=0;entryX=0;entryY=0.5;entryDx=0;entryDy=0;endArrow=none;endFill=0;" edge="1" parent="1" source="0knfeuRSn2bXFJLwSbbv-3" target="0knfeuRSn2bXFJLwSbbv-67">
          <mxGeometry relative="1" as="geometry">
            <Array as="points">
              <mxPoint x="230" y="850" />
              <mxPoint x="230" y="900" />
            </Array>
          </mxGeometry>
        </mxCell>
        <mxCell id="0knfeuRSn2bXFJLwSbbv-3" value="&lt;div&gt;β&lt;/div&gt;" style="html=1;whiteSpace=wrap;" vertex="1" parent="1">
          <mxGeometry x="180" y="830" width="40" height="40" as="geometry" />
        </mxCell>
        <mxCell id="0knfeuRSn2bXFJLwSbbv-76" style="edgeStyle=orthogonalEdgeStyle;rounded=0;orthogonalLoop=1;jettySize=auto;html=1;exitX=1;exitY=0.5;exitDx=0;exitDy=0;endArrow=none;endFill=0;" edge="1" parent="1" source="0knfeuRSn2bXFJLwSbbv-4">
          <mxGeometry relative="1" as="geometry">
            <mxPoint x="320" y="900.2" as="targetPoint" />
          </mxGeometry>
        </mxCell>
        <mxCell id="0knfeuRSn2bXFJLwSbbv-4" value="&lt;div&gt;κ&lt;/div&gt;" style="html=1;whiteSpace=wrap;" vertex="1" parent="1">
          <mxGeometry x="180" y="880" width="40" height="40" as="geometry" />
        </mxCell>
        <mxCell id="0knfeuRSn2bXFJLwSbbv-11" value="&lt;b&gt;Pulverization Runtime&lt;/b&gt;" style="html=1;dropTarget=0;whiteSpace=wrap;verticalAlign=top;" vertex="1" parent="1">
          <mxGeometry x="303" y="745" width="190" height="210" as="geometry" />
        </mxCell>
        <mxCell id="0knfeuRSn2bXFJLwSbbv-12" value="" style="shape=module;jettyWidth=8;jettyHeight=4;" vertex="1" parent="0knfeuRSn2bXFJLwSbbv-11">
          <mxGeometry x="1" width="20" height="20" relative="1" as="geometry">
            <mxPoint x="-27" y="7" as="offset" />
          </mxGeometry>
        </mxCell>
        <mxCell id="0knfeuRSn2bXFJLwSbbv-75" style="edgeStyle=orthogonalEdgeStyle;rounded=0;orthogonalLoop=1;jettySize=auto;html=1;entryX=0;entryY=0.5;entryDx=0;entryDy=0;endArrow=none;endFill=0;" edge="1" parent="1" source="0knfeuRSn2bXFJLwSbbv-5" target="0knfeuRSn2bXFJLwSbbv-67">
          <mxGeometry relative="1" as="geometry">
            <Array as="points">
              <mxPoint x="230" y="950" />
              <mxPoint x="230" y="900" />
            </Array>
          </mxGeometry>
        </mxCell>
        <mxCell id="0knfeuRSn2bXFJLwSbbv-80" value="«manage»" style="edgeLabel;html=1;align=center;verticalAlign=middle;resizable=0;points=[];" vertex="1" connectable="0" parent="0knfeuRSn2bXFJLwSbbv-75">
          <mxGeometry x="0.2706" relative="1" as="geometry">
            <mxPoint y="-10" as="offset" />
          </mxGeometry>
        </mxCell>
        <mxCell id="0knfeuRSn2bXFJLwSbbv-5" value="&lt;div&gt;𝛘&lt;/div&gt;" style="html=1;whiteSpace=wrap;" vertex="1" parent="1">
          <mxGeometry x="180" y="930" width="40" height="40" as="geometry" />
        </mxCell>
        <mxCell id="0knfeuRSn2bXFJLwSbbv-23" style="rounded=0;orthogonalLoop=1;jettySize=auto;html=1;exitX=0.75;exitY=0;exitDx=0;exitDy=0;entryX=0.5;entryY=1;entryDx=0;entryDy=0;endArrow=none;endFill=0;" edge="1" parent="1" source="0knfeuRSn2bXFJLwSbbv-11" target="0knfeuRSn2bXFJLwSbbv-15">
          <mxGeometry relative="1" as="geometry" />
        </mxCell>
        <mxCell id="0knfeuRSn2bXFJLwSbbv-24" value="uses" style="edgeLabel;html=1;align=center;verticalAlign=middle;resizable=0;points=[];" vertex="1" connectable="0" parent="0knfeuRSn2bXFJLwSbbv-23">
          <mxGeometry x="-0.3626" y="-12" relative="1" as="geometry">
            <mxPoint x="10" y="-48" as="offset" />
          </mxGeometry>
        </mxCell>
        <mxCell id="0knfeuRSn2bXFJLwSbbv-13" value="&lt;b&gt;Infrastructure DSL&lt;/b&gt;" style="html=1;dropTarget=0;whiteSpace=wrap;" vertex="1" parent="1">
          <mxGeometry x="160" y="500" width="160" height="60" as="geometry" />
        </mxCell>
        <mxCell id="0knfeuRSn2bXFJLwSbbv-14" value="" style="shape=module;jettyWidth=8;jettyHeight=4;" vertex="1" parent="0knfeuRSn2bXFJLwSbbv-13">
          <mxGeometry x="1" width="20" height="20" relative="1" as="geometry">
            <mxPoint x="-27" y="7" as="offset" />
          </mxGeometry>
        </mxCell>
        <mxCell id="0knfeuRSn2bXFJLwSbbv-25" style="edgeStyle=orthogonalEdgeStyle;rounded=0;orthogonalLoop=1;jettySize=auto;html=1;entryX=1;entryY=0.5;entryDx=0;entryDy=0;endArrow=none;endFill=0;" edge="1" parent="1" source="0knfeuRSn2bXFJLwSbbv-15" target="0knfeuRSn2bXFJLwSbbv-13">
          <mxGeometry relative="1" as="geometry" />
        </mxCell>
        <mxCell id="0knfeuRSn2bXFJLwSbbv-26" value="uses" style="edgeLabel;html=1;align=center;verticalAlign=middle;resizable=0;points=[];" vertex="1" connectable="0" parent="0knfeuRSn2bXFJLwSbbv-25">
          <mxGeometry x="-0.1121" y="1" relative="1" as="geometry">
            <mxPoint x="-4" y="-11" as="offset" />
          </mxGeometry>
        </mxCell>
        <mxCell id="0knfeuRSn2bXFJLwSbbv-15" value="&lt;b&gt;Runtime DSL&lt;/b&gt;" style="html=1;dropTarget=0;whiteSpace=wrap;" vertex="1" parent="1">
          <mxGeometry x="390" y="500" width="160" height="60" as="geometry" />
        </mxCell>
        <mxCell id="0knfeuRSn2bXFJLwSbbv-16" value="" style="shape=module;jettyWidth=8;jettyHeight=4;" vertex="1" parent="0knfeuRSn2bXFJLwSbbv-15">
          <mxGeometry x="1" width="20" height="20" relative="1" as="geometry">
            <mxPoint x="-27" y="7" as="offset" />
          </mxGeometry>
        </mxCell>
        <mxCell id="0knfeuRSn2bXFJLwSbbv-36" style="edgeStyle=orthogonalEdgeStyle;rounded=0;orthogonalLoop=1;jettySize=auto;html=1;exitX=0;exitY=0;exitDx=35;exitDy=140;exitPerimeter=0;entryX=0;entryY=0;entryDx=160;entryDy=0;entryPerimeter=0;endArrow=none;endFill=0;" edge="1" parent="1" source="0knfeuRSn2bXFJLwSbbv-17" target="0knfeuRSn2bXFJLwSbbv-6">
          <mxGeometry relative="1" as="geometry">
            <Array as="points">
              <mxPoint x="600" y="725" />
              <mxPoint x="600" y="835" />
            </Array>
          </mxGeometry>
        </mxCell>
        <mxCell id="0knfeuRSn2bXFJLwSbbv-17" value="Deployment Unit" style="verticalAlign=top;align=left;spacingTop=8;spacingLeft=2;spacingRight=12;shape=cube;size=10;direction=south;fontStyle=4;html=1;whiteSpace=wrap;" vertex="1" parent="1">
          <mxGeometry x="610" y="690" width="140" height="60" as="geometry" />
        </mxCell>
        <mxCell id="0knfeuRSn2bXFJLwSbbv-37" style="edgeStyle=orthogonalEdgeStyle;rounded=0;orthogonalLoop=1;jettySize=auto;html=1;exitX=0;exitY=0;exitDx=35;exitDy=140;exitPerimeter=0;entryX=0;entryY=0;entryDx=160;entryDy=0;entryPerimeter=0;endArrow=none;endFill=0;" edge="1" parent="1" source="0knfeuRSn2bXFJLwSbbv-18" target="0knfeuRSn2bXFJLwSbbv-6">
          <mxGeometry relative="1" as="geometry">
            <Array as="points">
              <mxPoint x="520" y="835" />
            </Array>
          </mxGeometry>
        </mxCell>
        <mxCell id="0knfeuRSn2bXFJLwSbbv-18" value="Deployment Unit" style="verticalAlign=top;align=left;spacingTop=8;spacingLeft=2;spacingRight=12;shape=cube;size=10;direction=south;fontStyle=4;html=1;whiteSpace=wrap;" vertex="1" parent="1">
          <mxGeometry x="610" y="800" width="140" height="60" as="geometry" />
        </mxCell>
        <mxCell id="0knfeuRSn2bXFJLwSbbv-38" style="edgeStyle=orthogonalEdgeStyle;rounded=0;orthogonalLoop=1;jettySize=auto;html=1;entryX=0;entryY=0;entryDx=160;entryDy=0;entryPerimeter=0;endArrow=none;endFill=0;" edge="1" parent="1" source="0knfeuRSn2bXFJLwSbbv-19" target="0knfeuRSn2bXFJLwSbbv-6">
          <mxGeometry relative="1" as="geometry">
            <Array as="points">
              <mxPoint x="600" y="948" />
              <mxPoint x="600" y="835" />
            </Array>
          </mxGeometry>
        </mxCell>
        <mxCell id="0knfeuRSn2bXFJLwSbbv-71" value="«protocol»" style="edgeLabel;html=1;align=center;verticalAlign=middle;resizable=0;points=[];" vertex="1" connectable="0" parent="0knfeuRSn2bXFJLwSbbv-38">
          <mxGeometry x="0.498" y="-1" relative="1" as="geometry">
            <mxPoint x="4" y="-10" as="offset" />
          </mxGeometry>
        </mxCell>
        <mxCell id="0knfeuRSn2bXFJLwSbbv-19" value="Deployment Unit" style="verticalAlign=top;align=left;spacingTop=8;spacingLeft=2;spacingRight=12;shape=cube;size=10;direction=south;fontStyle=4;html=1;whiteSpace=wrap;" vertex="1" parent="1">
          <mxGeometry x="610" y="918" width="140" height="60" as="geometry" />
        </mxCell>
        <mxCell id="0knfeuRSn2bXFJLwSbbv-33" value="" style="endArrow=diamondThin;endFill=0;endSize=15;html=1;rounded=0;exitX=0.5;exitY=1;exitDx=0;exitDy=0;" edge="1" parent="1" target="0knfeuRSn2bXFJLwSbbv-13">
          <mxGeometry width="160" relative="1" as="geometry">
            <mxPoint x="240" y="410" as="sourcePoint" />
            <mxPoint x="170" y="530" as="targetPoint" />
          </mxGeometry>
        </mxCell>
        <mxCell id="0knfeuRSn2bXFJLwSbbv-34" value="" style="endArrow=diamondThin;endFill=0;endSize=15;html=1;rounded=0;exitX=0.5;exitY=1;exitDx=0;exitDy=0;entryX=0.25;entryY=0;entryDx=0;entryDy=0;" edge="1" parent="1" target="0knfeuRSn2bXFJLwSbbv-15">
          <mxGeometry width="160" relative="1" as="geometry">
            <mxPoint x="393" y="410" as="sourcePoint" />
            <mxPoint x="459.72" y="480" as="targetPoint" />
          </mxGeometry>
        </mxCell>
        <mxCell id="0knfeuRSn2bXFJLwSbbv-35" value="" style="endArrow=diamondThin;endFill=0;endSize=15;html=1;rounded=0;exitX=0.5;exitY=1;exitDx=0;exitDy=0;entryX=0.75;entryY=0;entryDx=0;entryDy=0;" edge="1" parent="1" target="0knfeuRSn2bXFJLwSbbv-15">
          <mxGeometry width="160" relative="1" as="geometry">
            <mxPoint x="545.0000000000002" y="410" as="sourcePoint" />
            <mxPoint x="260" y="520" as="targetPoint" />
          </mxGeometry>
        </mxCell>
        <mxCell id="0knfeuRSn2bXFJLwSbbv-45" value="«interface»&lt;br&gt;&lt;b&gt;PulverizedComponent&lt;br&gt;&lt;/b&gt;" style="html=1;whiteSpace=wrap;" vertex="1" parent="1">
          <mxGeometry x="160" y="610" width="160" height="50" as="geometry" />
        </mxCell>
        <mxCell id="0knfeuRSn2bXFJLwSbbv-47" value="" style="endArrow=diamondThin;endFill=0;endSize=15;html=1;rounded=0;entryX=0.5;entryY=1;entryDx=0;entryDy=0;exitX=0.5;exitY=0;exitDx=0;exitDy=0;" edge="1" parent="1" source="0knfeuRSn2bXFJLwSbbv-45" target="0knfeuRSn2bXFJLwSbbv-13">
          <mxGeometry width="160" relative="1" as="geometry">
            <mxPoint x="360" y="570" as="sourcePoint" />
            <mxPoint x="250" y="510" as="targetPoint" />
          </mxGeometry>
        </mxCell>
        <mxCell id="0knfeuRSn2bXFJLwSbbv-48" value="«interface»&lt;br&gt;&lt;b&gt;Capability&lt;br&gt;&lt;/b&gt;" style="html=1;whiteSpace=wrap;" vertex="1" parent="1">
          <mxGeometry x="190" y="400" width="110" height="50" as="geometry" />
        </mxCell>
        <mxCell id="0knfeuRSn2bXFJLwSbbv-49" style="edgeStyle=orthogonalEdgeStyle;rounded=0;orthogonalLoop=1;jettySize=auto;html=1;entryX=1;entryY=0.5;entryDx=0;entryDy=0;endArrow=none;endFill=0;" edge="1" source="0knfeuRSn2bXFJLwSbbv-51" target="0knfeuRSn2bXFJLwSbbv-48" parent="1">
          <mxGeometry relative="1" as="geometry" />
        </mxCell>
        <mxCell id="0knfeuRSn2bXFJLwSbbv-50" value="has" style="edgeLabel;html=1;align=center;verticalAlign=middle;resizable=0;points=[];" vertex="1" connectable="0" parent="0knfeuRSn2bXFJLwSbbv-49">
          <mxGeometry x="-0.2017" y="-1" relative="1" as="geometry">
            <mxPoint x="-5" y="-11" as="offset" />
          </mxGeometry>
        </mxCell>
        <mxCell id="0knfeuRSn2bXFJLwSbbv-51" value="«interface»&lt;br&gt;&lt;b&gt;Host&lt;br&gt;&lt;/b&gt;" style="html=1;whiteSpace=wrap;" vertex="1" parent="1">
          <mxGeometry x="343" y="400" width="110" height="50" as="geometry" />
        </mxCell>
        <mxCell id="0knfeuRSn2bXFJLwSbbv-52" value="«interface»&lt;br&gt;&lt;b&gt;ReconfigurationEvent&lt;br&gt;&lt;/b&gt;" style="html=1;whiteSpace=wrap;" vertex="1" parent="1">
          <mxGeometry x="475" y="400" width="150" height="50" as="geometry" />
        </mxCell>
        <mxCell id="0knfeuRSn2bXFJLwSbbv-63" value="UnitReconfigurator" style="swimlane;fontStyle=1;align=center;verticalAlign=top;childLayout=stackLayout;horizontal=1;startSize=26;horizontalStack=0;resizeParent=1;resizeParentMax=0;resizeLast=0;collapsible=1;marginBottom=0;whiteSpace=wrap;html=1;" vertex="1" collapsed="1" parent="1">
          <mxGeometry x="323" y="800" width="150" height="30" as="geometry">
            <mxRectangle x="325" y="830" width="160" height="86" as="alternateBounds" />
          </mxGeometry>
        </mxCell>
        <mxCell id="0knfeuRSn2bXFJLwSbbv-64" value="+ field: type" style="text;strokeColor=none;fillColor=none;align=left;verticalAlign=top;spacingLeft=4;spacingRight=4;overflow=hidden;rotatable=0;points=[[0,0.5],[1,0.5]];portConstraint=eastwest;whiteSpace=wrap;html=1;" vertex="1" parent="0knfeuRSn2bXFJLwSbbv-63">
          <mxGeometry y="26" width="160" height="26" as="geometry" />
        </mxCell>
        <mxCell id="0knfeuRSn2bXFJLwSbbv-65" value="" style="line;strokeWidth=1;fillColor=none;align=left;verticalAlign=middle;spacingTop=-1;spacingLeft=3;spacingRight=3;rotatable=0;labelPosition=right;points=[];portConstraint=eastwest;strokeColor=inherit;" vertex="1" parent="0knfeuRSn2bXFJLwSbbv-63">
          <mxGeometry y="52" width="160" height="8" as="geometry" />
        </mxCell>
        <mxCell id="0knfeuRSn2bXFJLwSbbv-66" value="+ method(type): type" style="text;strokeColor=none;fillColor=none;align=left;verticalAlign=top;spacingLeft=4;spacingRight=4;overflow=hidden;rotatable=0;points=[[0,0.5],[1,0.5]];portConstraint=eastwest;whiteSpace=wrap;html=1;" vertex="1" parent="0knfeuRSn2bXFJLwSbbv-63">
          <mxGeometry y="60" width="160" height="26" as="geometry" />
        </mxCell>
        <mxCell id="0knfeuRSn2bXFJLwSbbv-67" value="Spawner" style="swimlane;fontStyle=1;align=center;verticalAlign=top;childLayout=stackLayout;horizontal=1;startSize=26;horizontalStack=0;resizeParent=1;resizeParentMax=0;resizeLast=0;collapsible=1;marginBottom=0;whiteSpace=wrap;html=1;" vertex="1" collapsed="1" parent="1">
          <mxGeometry x="323" y="885" width="150" height="30" as="geometry">
            <mxRectangle x="330" y="880" width="160" height="86" as="alternateBounds" />
          </mxGeometry>
        </mxCell>
        <mxCell id="0knfeuRSn2bXFJLwSbbv-68" value="+ field: type" style="text;strokeColor=none;fillColor=none;align=left;verticalAlign=top;spacingLeft=4;spacingRight=4;overflow=hidden;rotatable=0;points=[[0,0.5],[1,0.5]];portConstraint=eastwest;whiteSpace=wrap;html=1;" vertex="1" parent="0knfeuRSn2bXFJLwSbbv-67">
          <mxGeometry y="26" width="160" height="26" as="geometry" />
        </mxCell>
        <mxCell id="0knfeuRSn2bXFJLwSbbv-69" value="" style="line;strokeWidth=1;fillColor=none;align=left;verticalAlign=middle;spacingTop=-1;spacingLeft=3;spacingRight=3;rotatable=0;labelPosition=right;points=[];portConstraint=eastwest;strokeColor=inherit;" vertex="1" parent="0knfeuRSn2bXFJLwSbbv-67">
          <mxGeometry y="52" width="160" height="8" as="geometry" />
        </mxCell>
        <mxCell id="0knfeuRSn2bXFJLwSbbv-70" value="+ method(type): type" style="text;strokeColor=none;fillColor=none;align=left;verticalAlign=top;spacingLeft=4;spacingRight=4;overflow=hidden;rotatable=0;points=[[0,0.5],[1,0.5]];portConstraint=eastwest;whiteSpace=wrap;html=1;" vertex="1" parent="0knfeuRSn2bXFJLwSbbv-67">
          <mxGeometry y="60" width="160" height="26" as="geometry" />
        </mxCell>
        <mxCell id="0knfeuRSn2bXFJLwSbbv-72" value="" style="endArrow=diamondThin;endFill=0;endSize=15;html=1;rounded=0;entryX=0.5;entryY=1;entryDx=0;entryDy=0;exitX=0.5;exitY=0;exitDx=0;exitDy=0;fontSize=11;jumpSize=6;" edge="1" parent="1" source="0knfeuRSn2bXFJLwSbbv-67" target="0knfeuRSn2bXFJLwSbbv-63">
          <mxGeometry width="160" relative="1" as="geometry">
            <mxPoint x="-20" y="905" as="sourcePoint" />
            <mxPoint x="140" y="905" as="targetPoint" />
          </mxGeometry>
        </mxCell>
      </root>
    </mxGraphModel>
  </diagram>
</mxfile>
